<?xml version="1.0" encoding="utf-8"?>
<!-- Generator: Adobe Illustrator 19.0.0, SVG Export Plug-In . SVG Version: 6.00 Build 0)  -->
<svg version="1.1" xmlns="http://www.w3.org/2000/svg" xmlns:xlink="http://www.w3.org/1999/xlink" x="0px" y="0px"
	 viewBox="0 0 500 500" style="enable-background:new 0 0 500 500;" xml:space="preserve">
<style type="text/css">
	.st0{display:none;}
	.st1{display:inline;fill:url(#logo_01_4_);}
	.st2{fill:#CC0000;}
	.st3{display:inline;}
	.st4{display:inline;fill:#FFFFFF;}
</style>
<g id="O3_Logo_-_Gradient" class="st0">
	<linearGradient id="logo_01_4_" gradientUnits="userSpaceOnUse" x1="250" y1="492.8552" x2="250" y2="12.9528">
		<stop  offset="0" style="stop-color:#CC0000"/>
		<stop  offset="1" style="stop-color:#990000"/>
	</linearGradient>
	<path id="logo_01_11_" class="st1" d="M500,500H0V0h500V500z M370.3,250c0-66.3-54-120.2-120.3-120.2S129.7,183.7,129.7,250
		s54,120.3,120.3,120.3S370.3,316.3,370.3,250z M321.9,250c0,39.6-32.2,71.9-71.9,71.9c-39.6,0-71.9-32.2-71.9-71.9
		c0-39.6,32.2-71.8,71.9-71.8C289.6,178.2,321.9,210.4,321.9,250z M433.2,406.6c0-10.6-5-16.6-11.3-19.9c5.8-3.1,10.1-8.5,10.1-18
		c0-14.8-11.2-25.1-26.7-25.1c-14.8,0-26.5,9.3-26.8,25h16c0.4-6.6,4.8-10.6,10.8-10.6c5.8,0,10.7,3.8,10.7,11.2
		c0,6.2-3.3,10.9-11.1,10.9h-2.3v13.9h2.3c7.9,0,12.3,4.8,12.3,12c0,7.9-4.9,12.2-11.8,12.2c-6.3,0-11.7-3.6-11.9-11.4h-16
		c0.2,18.3,13.7,25.8,27.9,25.8C420.4,432.7,433.2,424.1,433.2,406.6z"/>
</g>
<g id="O3_Logo_-_Solid_Red">
	<path id="logo_01_1_" class="st2" d="M500,500H0V0h500V500z M370.3,250c0-66.3-54-120.2-120.3-120.2S129.7,183.7,129.7,250
		s54,120.3,120.3,120.3S370.3,316.3,370.3,250z M321.9,250c0,39.6-32.2,71.9-71.9,71.9c-39.6,0-71.9-32.2-71.9-71.9
		c0-39.6,32.2-71.8,71.9-71.8C289.6,178.2,321.9,210.4,321.9,250z M433.2,406.6c0-10.6-5-16.6-11.3-19.9c5.8-3.1,10.1-8.5,10.1-18
		c0-14.8-11.2-25.1-26.7-25.1c-14.8,0-26.5,9.3-26.8,25h16c0.4-6.6,4.8-10.6,10.8-10.6c5.8,0,10.7,3.8,10.7,11.2
		c0,6.2-3.3,10.9-11.1,10.9h-2.3v13.9h2.3c7.9,0,12.3,4.8,12.3,12c0,7.9-4.9,12.2-11.8,12.2c-6.3,0-11.7-3.6-11.9-11.4h-16
		c0.2,18.3,13.7,25.8,27.9,25.8C420.4,432.7,433.2,424.1,433.2,406.6z"/>
</g>
<g id="O3_Logo_-_Solid_Black" class="st0">
	<path id="logo_01_2_" class="st3" d="M500,500H0V0h500V500z M370.3,250c0-66.3-54-120.2-120.3-120.2S129.7,183.7,129.7,250
		s54,120.3,120.3,120.3S370.3,316.3,370.3,250z M321.9,250c0,39.6-32.2,71.9-71.9,71.9c-39.6,0-71.9-32.2-71.9-71.9
		c0-39.6,32.2-71.8,71.9-71.8C289.6,178.2,321.9,210.4,321.9,250z M433.2,406.6c0-10.6-5-16.6-11.3-19.9c5.8-3.1,10.1-8.5,10.1-18
		c0-14.8-11.2-25.1-26.7-25.1c-14.8,0-26.5,9.3-26.8,25h16c0.4-6.6,4.8-10.6,10.8-10.6c5.8,0,10.7,3.8,10.7,11.2
		c0,6.2-3.3,10.9-11.1,10.9h-2.3v13.9h2.3c7.9,0,12.3,4.8,12.3,12c0,7.9-4.9,12.2-11.8,12.2c-6.3,0-11.7-3.6-11.9-11.4h-16
		c0.2,18.3,13.7,25.8,27.9,25.8C420.4,432.7,433.2,424.1,433.2,406.6z"/>
</g>
<g id="O3_Logo_-_Solid_White" class="st0">
	<path id="logo_01_3_" class="st4" d="M500,500H0V0h500V500z M370.3,250c0-66.3-54-120.2-120.3-120.2S129.7,183.7,129.7,250
		s54,120.3,120.3,120.3S370.3,316.3,370.3,250z M321.9,250c0,39.6-32.2,71.9-71.9,71.9c-39.6,0-71.9-32.2-71.9-71.9
		c0-39.6,32.2-71.8,71.9-71.8C289.6,178.2,321.9,210.4,321.9,250z M433.2,406.6c0-10.6-5-16.6-11.3-19.9c5.8-3.1,10.1-8.5,10.1-18
		c0-14.8-11.2-25.1-26.7-25.1c-14.8,0-26.5,9.3-26.8,25h16c0.4-6.6,4.8-10.6,10.8-10.6c5.8,0,10.7,3.8,10.7,11.2
		c0,6.2-3.3,10.9-11.1,10.9h-2.3v13.9h2.3c7.9,0,12.3,4.8,12.3,12c0,7.9-4.9,12.2-11.8,12.2c-6.3,0-11.7-3.6-11.9-11.4h-16
		c0.2,18.3,13.7,25.8,27.9,25.8C420.4,432.7,433.2,424.1,433.2,406.6z"/>
</g>
</svg>
