<?xml version="1.0" encoding="utf-8"?>
<!-- Generator: Adobe Illustrator 18.1.1, SVG Export Plug-In . SVG Version: 6.00 Build 0)  -->
<svg version="1.1" id="O3_Labs_Bot" xmlns="http://www.w3.org/2000/svg" xmlns:xlink="http://www.w3.org/1999/xlink" x="0px"
	 y="0px" viewBox="0 0 210 222.2" enable-background="new 0 0 210 222.2" xml:space="preserve">
<path fill="#FFFFFF" d="M51.5,19.6v108h108v-108H51.5z M118.4,33c0.9,0,1.7,0.8,1.7,1.7c0,0.9-0.8,1.7-1.7,1.7
	c-0.9,0-1.7-0.8-1.7-1.7C116.8,33.8,117.5,33,118.4,33z M110.5,31.3c0-0.9,0.6-1.7,1.5-1.7c0.9,0,1.5,0.8,1.5,1.7V38
	c0,0.9-0.6,1.7-1.5,1.7c-0.9,0-1.5-0.8-1.5-1.7V31.3z M103.5,28c0-0.9,0.6-1.7,1.5-1.7c0.9,0,1.5,0.8,1.5,1.7v13.4
	c0,0.9-0.6,1.7-1.5,1.7c-0.9,0-1.5-0.8-1.5-1.7V28z M96.5,31.3c0-0.9,0.6-1.7,1.5-1.7c0.9,0,1.5,0.8,1.5,1.7V38
	c0,0.9-0.6,1.7-1.5,1.7c-0.9,0-1.5-0.8-1.5-1.7V31.3z M91.6,33c0.9,0,1.7,0.8,1.7,1.7c0,0.9-0.8,1.7-1.7,1.7c-0.9,0-1.7-0.8-1.7-1.7
	C89.9,33.8,90.6,33,91.6,33z M88.8,113.6H61.1c0,0,0-0.3,0-0.3c0-7.6,6.2-13.9,13.8-13.9s13.8,6.3,13.8,14
	C88.8,113.4,88.8,113.6,88.8,113.6z M105.1,99.8c-14.3,0-25.9-11.6-25.9-25.9s11.6-25.9,25.9-25.9s25.9,11.6,25.9,25.9
	S119.4,99.8,105.1,99.8z M138.6,113.2c-3.1,0-6-1.6-6-5.6h3.4c0.1,2,1.2,2.5,2.6,2.5c1.5,0,2.5-1.1,2.5-2.8c0-1.6-1-2.7-2.7-2.7h0
	v-3h0c1.7,0,2.4-0.9,2.4-2.2c0-1.6-1.1-2.2-2.3-2.2c-1.3,0-2.3,0.5-2.3,2.5h-3.4c0.1-4,2.6-5.5,5.8-5.5c3.3,0,5.8,2.2,5.8,5.4
	c0,2-0.9,3.2-2.2,3.8c1.4,0.7,2.4,2,2.4,4.3C144.6,111.4,141.9,113.2,138.6,113.2z"/>
<path fill="#FFFFFF" d="M74.6,104.2c-0.2-0.4-0.6-0.6-1-0.5s-0.5,0.5-0.5,1c0,0,0.4,3.7,0.5,3.9c0.3,0.8,1.1,1.3,2,1
	c0.8-0.3,1.3-1.1,1-2C76.4,107.5,74.6,104.2,74.6,104.2z"/>
<path fill="#FFFFFF" d="M105.1,58.3c-8.5,0-15.5,6.9-15.5,15.5c0,8.5,7,15.5,15.5,15.5c8.5,0,15.5-7,15.5-15.5
	C120.6,65.3,113.7,58.3,105.1,58.3z M105,78.5c-2.6,0-4.6-2.1-4.6-4.6s2.1-4.6,4.6-4.6s4.6,2.1,4.6,4.6S107.6,78.5,105,78.5z
	 M111.9,68.9c-1,0-1.8-0.8-1.8-1.8c0-1,0.8-1.8,1.8-1.8s1.8,0.8,1.8,1.8C113.7,68,112.9,68.9,111.9,68.9z"/>
<g>
	<path fill="#FFFFFF" d="M108.5,9.5L108.5,9.5c-0.2,0-0.3-0.1-0.4-0.3l-3-7.6l-3,7.6c-0.1,0.2-0.2,0.3-0.4,0.3l0,0
		c-0.2,0-0.3-0.1-0.4-0.3l-3-7.6l-1.3,3.3c-0.1,0.2-0.4,0.3-0.6,0.3C96,5.1,95.9,4.8,96,4.6l1.7-4.3C97.7,0.1,97.9,0,98.1,0
		c0.2,0,0.3,0.1,0.4,0.3l3,7.6l3-7.6c0.1-0.2,0.2-0.3,0.4-0.3l0,0c0.2,0,0.3,0.1,0.4,0.3l3,7.6l3-7.6c0.1-0.2,0.2-0.3,0.4-0.3l0,0
		c0.2,0,0.3,0.1,0.4,0.3l1.7,4.3c0.1,0.2,0,0.5-0.3,0.6c-0.2,0.1-0.5,0-0.6-0.3l-1.3-3.3l-3,7.6C108.8,9.4,108.6,9.5,108.5,9.5z"/>
	<g>
		<g>
			<polygon fill="#FFFFFF" points="116,21.6 111.9,20.1 117.7,7.3 119.8,8.1 			"/>
			<circle fill="#FFFFFF" cx="119.8" cy="5.4" r="3.2"/>
		</g>
		<g>
			<polygon fill="#FFFFFF" points="94,21.6 98.1,20.1 92.3,7.3 90.2,8.1 			"/>
			<circle fill="#FFFFFF" cx="90.2" cy="5.4" r="3.2"/>
		</g>
	</g>
</g>
<g>
	<g>
		<circle fill="#FFFFFF" cx="90.4" cy="123.7" r="10.2"/>
		<polygon fill="#FFFFFF" points="88.6,142.9 85.5,142.4 85.6,131.6 92.1,132.7 		"/>
		<path fill="#FFFFFF" d="M74.1,168c0,0-1.4-8.9,5.2-23.4h15c6.6,14.6,5.2,23.4,5.2,23.4H74.1z"/>
		<circle fill="#FFFFFF" cx="86.8" cy="145.3" r="5.4"/>
		<path fill="#FFFFFF" d="M98.3,163.9c-3.6-1.3-7.8-2.1-12.3-2.1c-8.1,0-15.2,2.5-19.4,6.2h31.7V163.9z"/>
	</g>
	<g>
		<circle fill="#FFFFFF" cx="119.6" cy="123.7" r="10.2"/>
		<polygon fill="#FFFFFF" points="121.4,142.9 124.6,142.4 124.4,131.6 117.9,132.7 		"/>
		<path fill="#FFFFFF" d="M135.9,168c0,0,1.4-8.9-5.2-23.4h-15c-6.6,14.6-5.2,23.4-5.2,23.4H135.9z"/>
		<circle fill="#FFFFFF" cx="123.2" cy="145.3" r="5.4"/>
		<path fill="#FFFFFF" d="M111.7,163.9c3.6-1.3,7.8-2.1,12.3-2.1c8.1,0,15.2,2.5,19.4,6.2h-31.7V163.9z"/>
	</g>
</g>
<g>
	<g>
		<circle fill="#FFFFFF" cx="51.2" cy="73.5" r="10.2"/>
		<polygon fill="#FFFFFF" points="27.4,94.4 25.4,91.8 42.4,76.2 46.5,81.3 		"/>
	</g>
	<g>
		<circle fill="#FFFFFF" cx="27.1" cy="93.1" r="4.3"/>
		<circle fill="#FFFFFF" cx="28.2" cy="142.3" r="2"/>
		<circle fill="#FFFFFF" cx="10.9" cy="141.3" r="2"/>
		<polygon fill="#FFFFFF" points="34.4,136.9 23.3,127.5 29.5,122.1 37.4,134.2 		"/>
		
			<rect x="30" y="133.8" transform="matrix(-0.6621 -0.7494 0.7494 -0.6621 -50.8287 254.9682)" fill="#FFFFFF" width="4.1" height="10.2"/>
		
			<rect x="2.4" y="135.4" transform="matrix(-0.6621 -0.7494 0.7494 -0.6621 -90.5419 234.0199)" fill="#FFFFFF" width="10.2" height="4.1"/>
		<polygon fill="#FFFFFF" points="2.7,132 5.5,135.1 17.6,127.2 12.1,121 		"/>
		<circle fill="#FFFFFF" cx="35.9" cy="135.6" r="4.1"/>
		<circle fill="#FFFFFF" cx="4.1" cy="133.6" r="4.1"/>
		<path fill="#FFFFFF" d="M32.7,95.3l-11.6-2.8c-6.4,11.2-9.1,19.9-10.2,24.1l0,0c-0.6,3,0.2,6.3,2.4,8.8c3.7,4.2,10.2,4.7,14.5,1
			c1.5-1.4,2.6-2.8,3.1-4.8h0c0,0,0-0.1,0-0.1c0.1-0.4,0.2-0.8,0.3-1.2C32.1,115.7,33.3,107.1,32.7,95.3z M24.4,122.5
			c-2.1,1.9-5.4,1.7-7.2-0.4c-1.9-2.1-1.7-5.4,0.4-7.2c2.1-1.9,5.4-1.7,7.2,0.4C26.7,117.4,26.5,120.6,24.4,122.5z"/>
		<circle fill="#FFFFFF" cx="21" cy="118.7" r="1.8"/>
	</g>
</g>
<g>
	<g>
		<circle fill="#FFFFFF" cx="158.8" cy="73.5" r="10.2"/>
		<polygon fill="#FFFFFF" points="182.6,94.4 184.6,91.8 167.6,76.2 163.6,81.3 		"/>
	</g>
	<g>
		<circle fill="#FFFFFF" cx="182.9" cy="93.1" r="4.3"/>
		<circle fill="#FFFFFF" cx="181.8" cy="142.3" r="2"/>
		<circle fill="#FFFFFF" cx="199.1" cy="141.3" r="2"/>
		<polygon fill="#FFFFFF" points="175.6,136.9 186.7,127.5 180.5,122.1 172.6,134.2 		"/>
		
			<rect x="175.9" y="133.8" transform="matrix(0.6621 -0.7494 0.7494 0.6621 -43.9986 180.306)" fill="#FFFFFF" width="4.1" height="10.2"/>
		
			<rect x="197.4" y="135.4" transform="matrix(0.6621 -0.7494 0.7494 0.6621 -34.5532 198.2125)" fill="#FFFFFF" width="10.2" height="4.1"/>
		<polygon fill="#FFFFFF" points="207.3,132 204.6,135.1 192.5,127.2 197.9,121 		"/>
		<circle fill="#FFFFFF" cx="174.1" cy="135.6" r="4.1"/>
		<circle fill="#FFFFFF" cx="205.9" cy="133.6" r="4.1"/>
		<path fill="#FFFFFF" d="M199.1,116.7L199.1,116.7c-1-4.3-3.7-12.9-10.1-24.1l-11.6,2.8c-0.6,11.8,0.6,20.3,1.6,24.9
			c0.1,0.4,0.2,0.9,0.3,1.2c0,0,0,0.1,0,0.1h0c0.5,2,1.5,3.5,3.1,4.8c4.2,3.7,10.7,3.3,14.5-0.9C198.9,123,199.7,119.7,199.1,116.7z
			 M192.9,122.1c-1.9,2.1-5.1,2.3-7.2,0.4c-2.1-1.9-2.3-5.1-0.4-7.2c1.9-2.1,5.1-2.3,7.2-0.4C194.5,116.7,194.7,119.9,192.9,122.1z"
			/>
		<circle fill="#FFFFFF" cx="189" cy="118.7" r="1.8"/>
	</g>
</g>
<text transform="matrix(1 0 0 1 48.9262 221.6993)" display="none" fill="#FFFFFF" font-family="'RobotoSlab-Bold'" font-size="44">LABS</text>
<g>
	<path fill="#FFFFFF" d="M50.1,221.7v-3.8l3.3-0.6v-22.5l-3.3-0.6v-3.8h3.3h6.3h3.4v3.8l-3.4,0.6v22h8.8l0.3-3.9h4.8v8.7H50.1z"/>
	<path fill="#FFFFFF" d="M75.6,217.9l2.2-0.3l9.5-27.2h6.4l9.5,27.2l2.2,0.3v3.8H94.8v-3.8l2.2-0.4l-1.4-4.3H85.4l-1.4,4.3l2.2,0.4
		v3.8H75.6V217.9z M86.9,208.6h7.2l-3.5-11h-0.1L86.9,208.6z"/>
	<path fill="#FFFFFF" d="M121.4,190.4c3.7,0,6.6,0.7,8.6,2.1c2.1,1.4,3.1,3.6,3.1,6.4c0,1.4-0.4,2.7-1.1,3.9s-1.9,2-3.3,2.6
		c1.9,0.4,3.3,1.3,4.2,2.6c0.9,1.3,1.4,2.8,1.4,4.6c0,3-1,5.3-3,6.8c-2,1.5-4.8,2.3-8.4,2.3h-15.4v-3.8l3.3-0.6v-22.5l-3.3-0.6v-3.8
		h3.3H121.4z M117.1,203.5h4.5c1.7,0,3-0.3,3.9-1s1.4-1.7,1.4-3c0-1.4-0.5-2.5-1.4-3.2s-2.3-1-4.1-1h-4.3V203.5z M117.1,207.9v9h5.8
		c1.7,0,2.9-0.4,3.8-1.1c0.9-0.7,1.3-1.8,1.3-3.2c0-1.5-0.4-2.7-1.1-3.5c-0.7-0.8-1.9-1.2-3.5-1.2H117.1z"/>
	<path fill="#FFFFFF" d="M160.4,200.4h-4.7l-0.8-4.3c-0.5-0.3-1.3-0.6-2.4-0.9s-2.2-0.4-3.3-0.4c-1.7,0-3,0.4-4,1.1
		c-0.9,0.7-1.4,1.7-1.4,2.8c0,1.1,0.5,1.9,1.5,2.6c1,0.7,2.7,1.4,5.1,2.2c3.5,1,6.1,2.2,7.9,3.8c1.8,1.6,2.7,3.6,2.7,6.2
		c0,2.7-1.1,4.8-3.2,6.3s-4.9,2.3-8.4,2.3c-2.5,0-4.7-0.4-6.7-1.2s-3.7-1.9-5-3.3v-6.5h4.9l0.7,4.4c0.6,0.5,1.5,0.9,2.6,1.3
		c1.1,0.3,2.3,0.5,3.6,0.5c1.7,0,3-0.4,3.9-1.1c0.9-0.7,1.3-1.6,1.3-2.8c0-1.2-0.4-2.2-1.3-2.9s-2.3-1.4-4.5-2.1
		c-3.7-1.1-6.5-2.3-8.4-3.8c-1.9-1.5-2.9-3.5-2.9-6.1c0-2.5,1.1-4.6,3.2-6.2s4.8-2.4,8.1-2.5c2.4,0,4.6,0.4,6.6,1.1s3.6,1.7,5,2.9
		V200.4z"/>
</g>
</svg>
